<?xml version="1.0" encoding="utf-8"?>
<svg version="1.1" id="Layer_1"
xmlns="http://www.w3.org/2000/svg"
xmlns:xlink="http://www.w3.org/1999/xlink"
width="550px" height="400px"
xml:space="preserve">
<g id="PathID_1" transform="matrix(1.21767, 0, 0, 1.20211, 152.7, 258.25)" opacity="1">
<path style="fill:#993300;fill-opacity:1" d="M38.9 -33.7Q38.2 -33.65 36.75 -33.25Q35.3 -32.9 34.65 -32.5Q33.75 -31.9 33.45 -30.1Q33.15 -28.35 33.15 -25.6L33.15 0.35L30.95 0.35L9.45 -28.65L9.45 -10.35Q9.45 -7.3 9.8 -5.65Q10.2 -4 11 -3.3Q11.6 -2.75 13.4 -2.25Q15.2 -1.8 15.8 -1.8L15.8 0L1.2 0L1.2 -1.8Q1.85 -1.85 3.45 -2.25Q5.05 -2.7 5.45 -3.05Q6.35 -3.75 6.65 -5.15Q7 -6.6 7 -10.1L7 -27.55Q7 -28.7 6.6 -29.85Q6.2 -31 5.5 -31.65Q4.6 -32.45 3.05 -33.05Q1.55 -33.65 0.6 -33.7L0.6 -35.5L10.75 -35.5L30.7 -8.45L30.7 -25.3Q30.7 -28.4 30.3 -30.05Q29.9 -31.7 29.15 -32.25Q28.45 -32.75 26.85 -33.2Q25.25 -33.65 24.45 -33.7L24.45 -35.5L38.9 -35.5L38.9 -33.7" />
</g>
<g id="PathID_2" transform="matrix(1.21767, 0, 0, 1.20211, 152.7, 258.25)" opacity="1">
</g>
<g id="PathID_3" transform="matrix(1.21767, 0, 0, 1.20211, 207.3, 258.25)" opacity="1">
<path style="fill:#993300;fill-opacity:1" d="M18 0L1.95 0L1.95 -1.8L3.85 -1.95Q5.15 -2.05 5.7 -2.25Q6.5 -2.55 6.9 -3.1Q7.3 -3.65 7.3 -4.65L7.3 -30.35Q7.3 -31.25 7 -31.8Q6.7 -32.4 5.7 -32.8Q4.95 -33.1 3.8 -33.35Q2.65 -33.65 1.95 -33.7L1.95 -35.5L18 -35.5L18 -33.7L16.1 -33.5Q15.05 -33.35 14.25 -33.1Q13.3 -32.8 12.95 -32.1Q12.65 -31.45 12.65 -30.6L12.65 -4.95Q12.65 -4.1 13 -3.45Q13.35 -2.85 14.25 -2.45Q14.75 -2.25 15.95 -2Q17.15 -1.8 18 -1.8L18 0" />
</g>
<g id="PathID_4" transform="matrix(1.21767, 0, 0, 1.20211, 207.3, 258.25)" opacity="1">
</g>
<g id="PathID_5" transform="matrix(1.21767, 0, 0, 1.20211, 238.4, 258.25)" opacity="1">
<path style="fill:#993300;fill-opacity:1" d="M36.85 -14.2L35.2 -13.9Q34.2 -13.75 33.55 -13.45Q32.8 -13.1 32.5 -12.4Q32.2 -11.7 32.2 -10.8L32.2 -8.05L32.2 -3.95L32.3 -2.25Q29 -0.75 25.7 0.05Q22.4 0.85 19.2 0.85Q15.8 0.85 12.65 -0.4Q9.5 -1.7 7.15 -4.05Q4.8 -6.4 3.4 -9.8Q2 -13.2 2 -17.4Q2 -21.45 3.3 -24.9Q4.65 -28.4 7.1 -30.95Q9.5 -33.45 12.75 -34.85Q16.05 -36.25 19.8 -36.25Q22.8 -36.25 25 -35.5Q27.25 -34.8 28.95 -33.8L30 -35.5L32 -35.5L32.2 -23.1L30.15 -23.1Q29.6 -25.1 28.8 -27.05Q28.05 -29.05 26.85 -30.65Q25.6 -32.2 23.85 -33.15Q22.1 -34.1 19.65 -34.1Q16.95 -34.1 14.85 -33Q12.75 -31.9 11.2 -29.75Q9.7 -27.7 8.85 -24.6Q8.05 -21.5 8.05 -17.65Q8.05 -14.3 8.85 -11.3Q9.65 -8.3 11.2 -6.15Q12.75 -3.9 15.05 -2.65Q17.4 -1.4 20.35 -1.4Q22.55 -1.4 24.35 -2.05Q26.2 -2.75 26.95 -3.5Q27.15 -4.8 27.15 -6.1L27.2 -8.35L27.2 -10.3Q27.2 -11.35 26.9 -12.15Q26.6 -13 25.7 -13.35Q24.9 -13.75 23.45 -13.95L21.3 -14.2L21.3 -16L36.85 -16L36.85 -14.2" />
</g>
<g id="PathID_6" transform="matrix(1.21767, 0, 0, 1.20211, 238.4, 258.25)" opacity="1">
</g>
<g id="PathID_7" transform="matrix(1.21767, 0, 0, 1.20211, 290.4, 258.25)" opacity="1">
<path style="fill:#993300;fill-opacity:1" d="M39.25 0L24.5 0L24.5 -1.8L26.15 -1.9Q27.3 -2 27.75 -2.2Q28.5 -2.5 28.85 -3.1Q29.2 -3.75 29.2 -4.7L29.2 -17.35L12.55 -17.35L12.55 -5Q12.55 -4.1 12.8 -3.5Q13.1 -2.9 13.95 -2.45Q14.4 -2.25 15.5 -2Q16.6 -1.8 17.25 -1.8L17.25 0L2.5 0L2.5 -1.8L4.15 -1.95Q5.3 -2.05 5.75 -2.25Q6.5 -2.5 6.85 -3.1Q7.2 -3.75 7.2 -4.7L7.2 -30.3Q7.2 -31.1 6.85 -31.75Q6.55 -32.45 5.75 -32.8Q5.05 -33.15 4.1 -33.4Q3.15 -33.65 2.5 -33.7L2.5 -35.5L17.25 -35.5L17.25 -33.7Q16.5 -33.65 15.45 -33.45L13.95 -33.1Q13.1 -32.8 12.8 -32.1Q12.55 -31.4 12.55 -30.55L12.55 -19.6L29.2 -19.6L29.2 -30.3Q29.2 -31.1 28.85 -31.75Q28.55 -32.45 27.75 -32.8Q27.05 -33.15 26.1 -33.4Q25.15 -33.65 24.5 -33.7L24.5 -35.5L39.25 -35.5L39.25 -33.7Q38.5 -33.65 37.45 -33.45L35.95 -33.1Q35.1 -32.8 34.8 -32.1Q34.55 -31.4 34.55 -30.55L34.55 -5Q34.55 -4.1 34.8 -3.5Q35.1 -2.9 35.95 -2.45Q36.4 -2.25 37.5 -2Q38.6 -1.8 39.25 -1.8L39.25 0" />
</g>
<g id="PathID_8" transform="matrix(1.21767, 0, 0, 1.20211, 290.4, 258.25)" opacity="1">
</g>
<g id="PathID_9" transform="matrix(1.21767, 0, 0, 1.20211, 348.05, 258.25)" opacity="1">
<path style="fill:#993300;fill-opacity:1" d="M31.35 -25.9L29.6 -25.9Q29.35 -26.75 28.75 -28Q28.2 -29.25 27.45 -30.35Q26.7 -31.5 25.8 -32.35Q24.95 -33.2 24.1 -33.35L22.15 -33.5L20 -33.55L18.55 -33.55L18.55 -5.15Q18.55 -4.35 18.9 -3.65Q19.25 -2.95 20.1 -2.6Q20.55 -2.4 22 -2.1Q23.45 -1.8 24.25 -1.8L24.25 0L7.45 0L7.45 -1.8L9.55 -2Q11 -2.15 11.55 -2.35Q12.4 -2.7 12.8 -3.3Q13.2 -3.9 13.2 -4.95L13.2 -33.55L11.75 -33.55L9.8 -33.5L7.6 -33.35Q6.8 -33.25 5.9 -32.35Q5 -31.45 4.25 -30.35Q3.5 -29.2 2.9 -27.95Q2.35 -26.7 2.15 -25.9L0.4 -25.9L0.4 -35.5L31.35 -35.5L31.35 -25.9" />
</g>
<g id="PathID_10" transform="matrix(1.21767, 0, 0, 1.20211, 348.05, 258.25)" opacity="1">
</g>
<filter id="filter3" x="-0.589048" y="-0.589048" width="2.3581" height="2.3581" >
<feComponentTransfer in="SourceGraphic">
	<feFuncR type="linear" slope="0"/>
	<feFuncG type="linear" slope="0"/>
	<feFuncB type="linear" slope="0"/>
</feComponentTransfer>
<feGaussianBlur stdDeviation="4 4" />
<feComponentTransfer result="1">
	<feFuncR type="linear" Ue="0" intercept="0.54902"/>
	<feFuncG type="linear" Ue="0" intercept="0.384314"/>
	<feFuncB type="linear" Ue="0" intercept="0.384314"/>
	<feFuncA type="linear" xh="0" slope="1"/>
</feComponentTransfer>
<feComposite result="2"  in="SourceGraphic" in2="1" operator="over"/>
</filter>
<g style="filter:url(#filter3);">
<g id="PathID_11" transform="matrix(0.630177, 0, 0, 0.655961, 193.8, 298.2)" opacity="1">
<path style="fill:#666666;fill-opacity:1" d="M24.55 -16.25Q25.65 -15 26.2 -13.5Q26.75 -12 26.75 -10.05Q26.75 -5.35 23.25 -2.3Q19.75 0.75 14.6 0.75Q12.25 0.75 9.85 0Q7.5 -0.7 5.75 -1.75L4.7 0.05L2.7 0.05L2.35 -12.1L4.4 -12.1Q5 -9.85 5.8 -8.05Q6.65 -6.25 8.05 -4.7Q9.35 -3.2 11.05 -2.35Q12.8 -1.5 15.1 -1.5Q16.85 -1.5 18.1 -1.9Q19.4 -2.35 20.2 -3.2Q21 -4 21.4 -5.1Q21.8 -6.25 21.8 -7.65Q21.8 -9.8 20.6 -11.6Q19.4 -13.45 17 -14.4L13.3 -15.8Q11.2 -16.6 9.65 -17.3Q6.65 -18.65 5 -20.85Q3.35 -23.05 3.35 -26.6Q3.35 -28.6 4.15 -30.35Q5 -32.1 6.5 -33.5Q7.95 -34.8 9.9 -35.55Q11.9 -36.3 14.05 -36.3Q16.5 -36.3 18.45 -35.55Q20.4 -34.8 22 -33.8L23.05 -35.5L25.05 -35.5L25.25 -23.75L23.2 -23.75Q22.65 -25.75 21.95 -27.55Q21.25 -29.4 20.15 -30.9Q19.1 -32.3 17.55 -33.15Q16 -34.05 13.75 -34.05Q11.35 -34.05 9.7 -32.5Q8.05 -31 8.05 -28.8Q8.05 -26.5 9.1 -25Q10.2 -23.5 12.25 -22.55Q14.05 -21.65 15.8 -21Q17.6 -20.4 19.25 -19.65Q20.75 -19 22.1 -18.15Q23.5 -17.35 24.55 -16.25" />
</g>
<g id="PathID_12" transform="matrix(0.630177, 0, 0, 0.655961, 193.8, 298.2)" opacity="1">
</g>
<g id="PathID_13" transform="matrix(0.630177, 0, 0, 0.655961, 213.55, 298.2)" opacity="1">
<path style="fill:#666666;fill-opacity:1" d="M29.65 -26.75Q29.65 -23.95 28.55 -21.8Q27.45 -19.7 25.5 -18.3Q23.6 -16.9 21.3 -16.25Q19.05 -15.6 16.5 -15.6L12.55 -15.6L12.55 -4.85Q12.55 -3.95 12.8 -3.3Q13.1 -2.65 14 -2.3Q14.45 -2.1 15.6 -1.95Q16.75 -1.8 17.7 -1.8L17.7 0L2.5 0L2.5 -1.8L4.15 -1.95Q5.3 -2.1 5.75 -2.25Q6.5 -2.6 6.85 -3.2Q7.2 -3.85 7.2 -4.8L7.2 -30.4Q7.2 -31.3 6.9 -32Q6.65 -32.7 5.75 -33.05Q4.8 -33.35 3.85 -33.5L2.25 -33.7L2.25 -35.5L18.45 -35.5Q23.45 -35.5 26.55 -33.1Q29.65 -30.7 29.65 -26.75M22 -20.75Q22.85 -21.95 23.15 -23.2Q23.45 -24.5 23.45 -25.5Q23.45 -26.95 23.1 -28.4Q22.75 -29.85 21.9 -30.95Q21.05 -32.15 19.6 -32.8Q18.2 -33.45 16.05 -33.45L12.55 -33.45L12.55 -17.85L15.1 -17.85Q17.8 -17.85 19.45 -18.65Q21.15 -19.5 22 -20.75" />
</g>
<g id="PathID_14" transform="matrix(0.630177, 0, 0, 0.655961, 213.55, 298.2)" opacity="1">
</g>
<g id="PathID_15" transform="matrix(0.630177, 0, 0, 0.655961, 234.85, 298.2)" opacity="1">
<path style="fill:#666666;fill-opacity:1" d="M37.05 0L27.5 0Q24.3 -4.95 21.75 -8.55Q19.2 -12.2 16.2 -16.1L12.55 -16.1L12.55 -4.85Q12.55 -3.95 12.8 -3.3Q13.1 -2.65 14 -2.3Q14.45 -2.1 15.55 -1.95Q16.7 -1.8 17.5 -1.8L17.5 0L2.5 0L2.5 -1.8L4.15 -1.95Q5.3 -2.1 5.75 -2.25Q6.5 -2.6 6.85 -3.2Q7.2 -3.85 7.2 -4.8L7.2 -30.45Q7.2 -31.35 6.95 -32Q6.7 -32.7 5.75 -33.05L4.15 -33.45L2.5 -33.7L2.5 -35.5L18.85 -35.5Q21.1 -35.5 23.05 -35Q25.05 -34.55 26.65 -33.55Q28.2 -32.55 29.1 -30.9Q30.05 -29.3 30.05 -27.05Q30.05 -25 29.4 -23.4Q28.8 -21.85 27.55 -20.7Q26.4 -19.6 24.8 -18.8Q23.25 -18.05 21.35 -17.5L25.75 -11.6L30 -5.85Q31.1 -4.35 32 -3.6Q32.9 -2.9 33.75 -2.45Q34.4 -2.15 35.35 -1.95Q36.35 -1.8 37.05 -1.8L37.05 0M23.85 -26.45Q23.85 -29.65 22 -31.55Q20.15 -33.45 16.75 -33.45L12.55 -33.45L12.55 -18.25L15.8 -18.25Q19.25 -18.25 21.55 -20.45Q23.85 -22.65 23.85 -26.45" />
</g>
<g id="PathID_16" transform="matrix(0.630177, 0, 0, 0.655961, 234.85, 298.2)" opacity="1">
</g>
<g id="PathID_17" transform="matrix(0.630177, 0, 0, 0.655961, 259.15, 298.2)" opacity="1">
<path style="fill:#666666;fill-opacity:1" d="M18 0L1.95 0L1.95 -1.8L3.85 -1.95Q5.15 -2.05 5.7 -2.25Q6.5 -2.55 6.9 -3.1Q7.3 -3.65 7.3 -4.65L7.3 -30.35Q7.3 -31.25 7 -31.8Q6.7 -32.4 5.7 -32.8Q4.95 -33.1 3.8 -33.35Q2.65 -33.65 1.95 -33.7L1.95 -35.5L18 -35.5L18 -33.7L16.1 -33.5Q15.05 -33.35 14.25 -33.1Q13.3 -32.8 12.95 -32.1Q12.65 -31.45 12.65 -30.6L12.65 -4.95Q12.65 -4.1 13 -3.45Q13.35 -2.85 14.25 -2.45Q14.75 -2.25 15.95 -2Q17.15 -1.8 18 -1.8L18 0" />
</g>
<g id="PathID_18" transform="matrix(0.630177, 0, 0, 0.655961, 259.15, 298.2)" opacity="1">
</g>
<g id="PathID_19" transform="matrix(0.630177, 0, 0, 0.655961, 273.4, 298.2)" opacity="1">
<path style="fill:#666666;fill-opacity:1" d="M38.9 -33.7Q38.2 -33.65 36.75 -33.25Q35.3 -32.9 34.65 -32.5Q33.75 -31.9 33.45 -30.1Q33.15 -28.35 33.15 -25.6L33.15 0.35L30.95 0.35L9.45 -28.65L9.45 -10.35Q9.45 -7.3 9.8 -5.65Q10.2 -4 11 -3.3Q11.6 -2.75 13.4 -2.25Q15.2 -1.8 15.8 -1.8L15.8 0L1.2 0L1.2 -1.8Q1.85 -1.85 3.45 -2.25Q5.05 -2.7 5.45 -3.05Q6.35 -3.75 6.65 -5.15Q7 -6.6 7 -10.1L7 -27.55Q7 -28.7 6.6 -29.85Q6.2 -31 5.5 -31.65Q4.6 -32.45 3.05 -33.05Q1.55 -33.65 0.6 -33.7L0.6 -35.5L10.75 -35.5L30.7 -8.45L30.7 -25.3Q30.7 -28.4 30.3 -30.05Q29.9 -31.7 29.15 -32.25Q28.45 -32.75 26.85 -33.2Q25.25 -33.65 24.45 -33.7L24.45 -35.5L38.9 -35.5L38.9 -33.7" />
</g>
<g id="PathID_20" transform="matrix(0.630177, 0, 0, 0.655961, 273.4, 298.2)" opacity="1">
</g>
<g id="PathID_21" transform="matrix(0.630177, 0, 0, 0.655961, 299.85, 298.2)" opacity="1">
<path style="fill:#666666;fill-opacity:1" d="M36.85 -14.2L35.2 -13.9Q34.2 -13.75 33.55 -13.45Q32.8 -13.1 32.5 -12.4Q32.2 -11.7 32.2 -10.8L32.2 -8.05L32.2 -3.95L32.3 -2.25Q29 -0.75 25.7 0.05Q22.4 0.85 19.2 0.85Q15.8 0.85 12.65 -0.4Q9.5 -1.7 7.15 -4.05Q4.8 -6.4 3.4 -9.8Q2 -13.2 2 -17.4Q2 -21.45 3.3 -24.9Q4.65 -28.4 7.1 -30.95Q9.5 -33.45 12.75 -34.85Q16.05 -36.25 19.8 -36.25Q22.8 -36.25 25 -35.5Q27.25 -34.8 28.95 -33.8L30 -35.5L32 -35.5L32.2 -23.1L30.15 -23.1Q29.6 -25.1 28.8 -27.05Q28.05 -29.05 26.85 -30.65Q25.6 -32.2 23.85 -33.15Q22.1 -34.1 19.65 -34.1Q16.95 -34.1 14.85 -33Q12.75 -31.9 11.2 -29.75Q9.7 -27.7 8.85 -24.6Q8.05 -21.5 8.05 -17.65Q8.05 -14.3 8.85 -11.3Q9.65 -8.3 11.2 -6.15Q12.75 -3.9 15.05 -2.65Q17.4 -1.4 20.35 -1.4Q22.55 -1.4 24.35 -2.05Q26.2 -2.75 26.95 -3.5Q27.15 -4.8 27.15 -6.1L27.2 -8.35L27.2 -10.3Q27.2 -11.35 26.9 -12.15Q26.6 -13 25.7 -13.35Q24.9 -13.75 23.45 -13.95L21.3 -14.2L21.3 -16L36.85 -16L36.85 -14.2" />
</g>
<g id="PathID_22" transform="matrix(0.630177, 0, 0, 0.655961, 299.85, 298.2)" opacity="1">
</g>
<g id="PathID_23" transform="matrix(0.630177, 0, 0, 0.655961, 324.85, 298.2)" opacity="1">
<path style="fill:#666666;fill-opacity:1" d="M24.55 -16.25Q25.65 -15 26.2 -13.5Q26.75 -12 26.75 -10.05Q26.75 -5.35 23.25 -2.3Q19.75 0.75 14.6 0.75Q12.25 0.75 9.85 0Q7.5 -0.7 5.75 -1.75L4.7 0.05L2.7 0.05L2.35 -12.1L4.4 -12.1Q5 -9.85 5.8 -8.05Q6.65 -6.25 8.05 -4.7Q9.35 -3.2 11.05 -2.35Q12.8 -1.5 15.1 -1.5Q16.85 -1.5 18.1 -1.9Q19.4 -2.35 20.2 -3.2Q21 -4 21.4 -5.1Q21.8 -6.25 21.8 -7.65Q21.8 -9.8 20.6 -11.6Q19.4 -13.45 17 -14.4L13.3 -15.8Q11.2 -16.6 9.65 -17.3Q6.65 -18.65 5 -20.85Q3.35 -23.05 3.35 -26.6Q3.35 -28.6 4.15 -30.35Q5 -32.1 6.5 -33.5Q7.95 -34.8 9.9 -35.55Q11.9 -36.3 14.05 -36.3Q16.5 -36.3 18.45 -35.55Q20.4 -34.8 22 -33.8L23.05 -35.5L25.05 -35.5L25.25 -23.75L23.2 -23.75Q22.65 -25.75 21.95 -27.55Q21.25 -29.4 20.15 -30.9Q19.1 -32.3 17.55 -33.15Q16 -34.05 13.75 -34.05Q11.35 -34.05 9.7 -32.5Q8.05 -31 8.05 -28.8Q8.05 -26.5 9.1 -25Q10.2 -23.5 12.25 -22.55Q14.05 -21.65 15.8 -21Q17.6 -20.4 19.25 -19.65Q20.75 -19 22.1 -18.15Q23.5 -17.35 24.55 -16.25" />
</g>
<g id="PathID_24" transform="matrix(0.630177, 0, 0, 0.655961, 324.85, 298.2)" opacity="1">
</g>
</g>
<g id="PathID_25" transform="matrix(1.83906, 0, 0, 1.83906, -326.9, -241.05)" opacity="1">
<path style="fill:#FFFFFF;fill-opacity:1" d="M341.3 203.5L339.3 203.5L339.3 202.45L341.3 202.45L341.3 203.5" />
</g>
<g id="PathID_26" transform="matrix(1.83906, 0, 0, 1.83906, -326.9, -241.05)" opacity="1">
</g>
<filter id="filter6" x="-0.589048" y="-0.589048" width="2.3581" height="2.3581" >
<feComponentTransfer in="SourceGraphic">
	<feFuncR type="linear" slope="0"/>
	<feFuncG type="linear" slope="0"/>
	<feFuncB type="linear" slope="0"/>
</feComponentTransfer>
<feGaussianBlur stdDeviation="4 4" />
<feComponentTransfer result="4">
	<feFuncR type="linear" Ue="0" intercept="0.14902"/>
	<feFuncG type="linear" Ue="0" intercept="0.101961"/>
	<feFuncB type="linear" Ue="0" intercept="0.101961"/>
	<feFuncA type="linear" xh="0" slope="1"/>
</feComponentTransfer>
<feComposite result="5"  in="SourceGraphic" in2="4" operator="over"/>
</filter>
<g style="filter:url(#filter6);">
<g id="PathID_27" transform="matrix(1.83906, 0, 0, 1.83906, 273.9, 130.8)" opacity="1">
<linearGradient
id="LinearGradID_1" gradientUnits="userSpaceOnUse" gradientTransform="matrix(-0.042511, 0.042511, -0.042511, -0.042511, 0, 0)" spreadMethod ="pad" x1="-819.2" y1="0" x2="819.2" y2="0" >
<stop  offset="0" style="stop-color:#3C3C3C;stop-opacity:1" />
<stop  offset="1" style="stop-color:#000000;stop-opacity:1" />
</linearGradient>
<path style="fill:url(#LinearGradID_1) " d="M7.25 -6.9L7.25 -9.3L10.5 -9.3L10.5 -8.45L11.8 -6.9L17.1 -6.9L17.1 8.8L17.8 8.8L17.8 -11.5L18.4 -11.5L18.4 -11.75L18.75 -11.75Q19.35 -13.35 20.6 -14.25Q21.9 -15.25 23.45 -15.35L23.8 -20.2L24.25 -15.35Q25.7 -15.2 26.9 -14.2Q28.05 -13.25 28.65 -11.8L28.95 -11.8L28.95 -11.5L29.35 -11.5L29.35 4.85L30.6 4.55L30.6 4.1L30.85 3.7L30.85 -6.95L33.1 -6.95L33.1 -8.35L35 -8.35L35 -6.95L49.2 -6.95L49.25 32.3L-49.25 32.25L-49.25 -8.85L-47.45 -8.85L-47.45 -9.85L-40.55 -9.85L-40.55 -8.85L-39.1 -8.85L-39.1 -5.5Q-38.7 -5.15 -38.7 -4.45L-38.7 1.75L-36.35 1.5L-36.35 -2.2L-28.25 -2.15L-28.3 -23.05L-25.8 -23.05L-25.8 -23.2L-24.35 -23.2L-21.7 -26.25L-21.7 -26.8L-21.45 -26.8L-21.45 -32.25L-21.05 -32.25L-21.05 -31.45L-21 -31.45L-21 -28.2L-20.85 -28.2L-20.85 -27.9L-21 -27.9L-21 -26.45L-18.1 -23.2L-17.2 -23.2L-17.2 -23.05L-14.45 -23.05L-14.45 7.75L-14.1 7.75L-14.1 -26.7L-12.9 -26.7L-12.9 -27.55L-10.3 -27.55L-10.3 -26.7L0.9 -26.7L0.9 0.05L2.25 0.05L2.25 -6.9L3.75 -6.9L3.75 -7.95L6.8 -7.95L6.8 -6.9L7.25 -6.9" />
</g>
<g id="PathID_28" transform="matrix(1.83906, 0, 0, 1.83906, 273.9, 130.8)" opacity="1">
</g>
</g>
<g id="PathID_29" transform="matrix(1.83906, 0, 0, 1.83906, 269.55, 189.75)" opacity="1">
<path style="fill:#000000;fill-opacity:1" d="M-68.35 -0.5L68.35 -0.5L68.35 0.55L-68.35 0.55L-68.35 -0.5" />
</g>
<g id="PathID_30" transform="matrix(1.83906, 0, 0, 1.83906, 269.55, 189.75)" opacity="1">
</g>
<g id="PathID_31" transform="matrix(1.83906, 0, 0, 1.83906, 268.95, 130.65)" opacity="1">
<linearGradient
id="LinearGradID_2" gradientUnits="userSpaceOnUse" gradientTransform="matrix(0, 0.0146484, -0.0134125, 0, 8.5, 11.35)" spreadMethod ="pad" x1="-819.2" y1="0" x2="819.2" y2="0" >
<stop  offset="0" style="stop-color:#FFFFFF;stop-opacity:0.2" />
<stop  offset="1" style="stop-color:#FFFFFF;stop-opacity:0" />
</linearGradient>
<path style="fill:url(#LinearGradID_2) " d="M11.3 -0.65L11.3 23.3L5.55 23.3L5.55 -0.65L11.3 -0.65" />
<linearGradient
id="LinearGradID_3" gradientUnits="userSpaceOnUse" gradientTransform="matrix(0, 0.0182037, -0.0166779, 0, 15.25, 8.5)" spreadMethod ="pad" x1="-819.2" y1="0" x2="819.2" y2="0" >
<stop  offset="0" style="stop-color:#FFFFFF;stop-opacity:0.2" />
<stop  offset="1" style="stop-color:#FFFFFF;stop-opacity:0" />
</linearGradient>
<path style="fill:url(#LinearGradID_3) " d="M15.9 -6.45L15.9 23.3L14.5 23.3L14.5 -6.45L15.9 -6.45" />
<linearGradient
id="LinearGradID_4" gradientUnits="userSpaceOnUse" gradientTransform="matrix(0, 0.0223694, -0.00509644, 0, 24, 2.4)" spreadMethod ="pad" x1="-819.2" y1="0" x2="819.2" y2="0" >
<stop  offset="0" style="stop-color:#FFFFFF;stop-opacity:0.2" />
<stop  offset="1" style="stop-color:#FFFFFF;stop-opacity:0" />
</linearGradient>
<path style="fill:url(#LinearGradID_4) " d="M20.45 -13.6L20.45 -15.35L27.4 -15.35L27.4 -9.9L22.65 -9.9L22.65 -8.8L27.4 -8.8L27.4 -6.25L20.45 -6.25L20.45 -12.1L24.2 -12.1L24.2 -13.6L20.45 -13.6" />
<linearGradient
id="LinearGradID_5" gradientUnits="userSpaceOnUse" gradientTransform="matrix(0, 0.0125275, -0.00338745, 0, 24.85, -0.2)" spreadMethod ="pad" x1="-819.2" y1="0" x2="819.2" y2="0" >
<stop  offset="0" style="stop-color:#FFFFFF;stop-opacity:0.2" />
<stop  offset="1" style="stop-color:#FFFFFF;stop-opacity:0" />
</linearGradient>
<path style="fill:url(#LinearGradID_5) " d="M20.45 -4.95L27.4 -4.95L27.4 -2.55L22.65 -2.55L22.65 -0.2L27.4 -0.2L27.4 1.1L20.45 1.1L20.45 -2.55L22.25 -2.55L22.25 -3.9L20.45 -3.9L20.45 -4.95" />
<linearGradient
id="LinearGradID_6" gradientUnits="userSpaceOnUse" gradientTransform="matrix(0, 0.0190125, -0.0174408, 0, 41.25, 7.85)" spreadMethod ="pad" x1="-819.2" y1="0" x2="819.2" y2="0" >
<stop  offset="0" style="stop-color:#FFFFFF;stop-opacity:0.2" />
<stop  offset="1" style="stop-color:#FFFFFF;stop-opacity:0" />
</linearGradient>
<path style="fill:url(#LinearGradID_6) " d="M35.95 -7.75L40.9 -7.75L40.9 -6.25L46.65 -6.25L46.65 -4.55L43.05 -4.55L43.05 -1.05L46.65 -1.05L46.65 0.7L43.05 0.7L43.05 2L46.65 2L46.65 23.35L35.95 23.35L35.95 0L41.25 0L41.25 -2.55L35.95 -2.55L35.95 -5.15L38.7 -5.15L38.7 -6.65L35.95 -6.65L35.95 -7.75" />
<linearGradient
id="LinearGradID_7" gradientUnits="userSpaceOnUse" gradientTransform="matrix(0, 0.0277863, -0.0102692, 0, 24.25, 7.3)" spreadMethod ="pad" x1="-819.2" y1="0" x2="819.2" y2="0" >
<stop  offset="0" style="stop-color:#FFFFFF;stop-opacity:0.2" />
<stop  offset="1" style="stop-color:#FFFFFF;stop-opacity:0" />
</linearGradient>
<path style="fill:url(#LinearGradID_7) " d="M27.4 5L27.4 23.3L20.45 23.3L20.45 5L27.4 5" />
<linearGradient
id="LinearGradID_8" gradientUnits="userSpaceOnUse" gradientTransform="matrix(0, 0.00236511, -0.000732422, 0, 23.95, 3.05)" spreadMethod ="pad" x1="-819.2" y1="0" x2="819.2" y2="0" >
<stop  offset="0" style="stop-color:#FFFFFF;stop-opacity:0.2" />
<stop  offset="1" style="stop-color:#FFFFFF;stop-opacity:0" />
</linearGradient>
<path style="fill:url(#LinearGradID_8) " d="M20.45 2.4L27.4 2.4L27.4 3.7L20.45 3.7L20.45 2.4" />
<linearGradient
id="LinearGradID_9" gradientUnits="userSpaceOnUse" gradientTransform="matrix(0, 0.0220947, -0.0203247, 0, -45.4, 5.25)" spreadMethod ="pad" x1="-819.2" y1="0" x2="819.2" y2="0" >
<stop  offset="0" style="stop-color:#FFFFFF;stop-opacity:0.2" />
<stop  offset="1" style="stop-color:#FFFFFF;stop-opacity:0" />
</linearGradient>
<path style="fill:url(#LinearGradID_9) " d="M-44.25 -12.95L-44.25 23.3L-46.6 23.3L-46.6 -12.95L-44.25 -12.95" />
<linearGradient
id="LinearGradID_10" gradientUnits="userSpaceOnUse" gradientTransform="matrix(0, 0.0220947, -0.0203094, 1.52588e-005, -42.1, 5.25)" spreadMethod ="pad" x1="-819.2" y1="0" x2="819.2" y2="0" >
<stop  offset="0" style="stop-color:#FFFFFF;stop-opacity:0.2" />
<stop  offset="1" style="stop-color:#FFFFFF;stop-opacity:0" />
</linearGradient>
<path style="fill:url(#LinearGradID_10) " d="M-41.05 -12.95L-41.05 23.3L-43.25 23.3L-43.25 -12.95L-41.05 -12.95" />
<linearGradient
id="LinearGradID_11" gradientUnits="userSpaceOnUse" gradientTransform="matrix(0, 0.00144958, -0.000488281, 0, -19.35, -19.4)" spreadMethod ="pad" x1="-819.2" y1="0" x2="819.2" y2="0" >
<stop  offset="0" style="stop-color:#FFFFFF;stop-opacity:0.2" />
<stop  offset="1" style="stop-color:#FFFFFF;stop-opacity:0" />
</linearGradient>
<path style="fill:url(#LinearGradID_11) " d="M-20.45 -19.85L-18.25 -19.85L-18.25 -19L-20.45 -19L-20.45 -19.85" />
<linearGradient
id="LinearGradID_12" gradientUnits="userSpaceOnUse" gradientTransform="matrix(0.00169373, 0, 0, 0.000793457, -24.2, -22.65)" spreadMethod ="pad" x1="-819.2" y1="0" x2="819.2" y2="0" >
<stop  offset="0" style="stop-color:#FFFFFF;stop-opacity:0.2" />
<stop  offset="1" style="stop-color:#FFFFFF;stop-opacity:0" />
</linearGradient>
<path style="fill:url(#LinearGradID_12) " d="M-22.8 -22L-25.6 -22L-25.6 -23.3L-22.8 -23.3L-22.8 -22" />
<linearGradient
id="LinearGradID_13" gradientUnits="userSpaceOnUse" gradientTransform="matrix(0, 0.00144958, -0.00120544, 0, -19.35, -22.2)" spreadMethod ="pad" x1="-819.2" y1="0" x2="819.2" y2="0" >
<stop  offset="0" style="stop-color:#FFFFFF;stop-opacity:0.2" />
<stop  offset="1" style="stop-color:#FFFFFF;stop-opacity:0" />
</linearGradient>
<path style="fill:url(#LinearGradID_13) " d="M-20.45 -23.3L-18.25 -23.3L-18.25 -21.1L-20.45 -21.1L-20.45 -23.3" />
<linearGradient
id="LinearGradID_14" gradientUnits="userSpaceOnUse" gradientTransform="matrix(0, 0.0232239, -0.021286, 0, -20.95, 4.3)" spreadMethod ="pad" x1="-819.2" y1="0" x2="819.2" y2="0" >
<stop  offset="0" style="stop-color:#FFFFFF;stop-opacity:0.2" />
<stop  offset="1" style="stop-color:#FFFFFF;stop-opacity:0" />
</linearGradient>
<path style="fill:url(#LinearGradID_14) " d="M-25.6 -14.65L-22.8 -14.65L-22.8 -11.2L-20.45 -11.2L-20.45 -12.75L-18.25 -12.75L-18.25 -0.2L-16.25 -0.2L-16.25 23.3L-19.25 23.3L-19.25 3.3L-20.45 3.3L-20.45 23.3L-22.25 23.3L-22.25 -4.3L-25.6 -4.3L-25.6 -7.1L-23.4 -7.1L-23.4 -8.8L-25.6 -8.8L-25.6 -12.1L-23.6 -12.1L-23.6 -14.05L-25.6 -14.05L-25.6 -14.65" />
<linearGradient
id="LinearGradID_15" gradientUnits="userSpaceOnUse" gradientTransform="matrix(0, 0.00369263, -0.00242615, 0, -19.35, -15.75)" spreadMethod ="pad" x1="-819.2" y1="0" x2="819.2" y2="0" >
<stop  offset="0" style="stop-color:#FFFFFF;stop-opacity:0.2" />
<stop  offset="1" style="stop-color:#FFFFFF;stop-opacity:0" />
</linearGradient>
<path style="fill:url(#LinearGradID_15) " d="M-20.45 -17.9L-18.25 -17.9L-18.25 -17.7L-19.85 -17.7L-19.85 -14.9L-18.25 -14.9L-18.25 -13.6L-20.45 -13.6L-20.45 -17.9" />
<linearGradient
id="LinearGradID_16" gradientUnits="userSpaceOnUse" gradientTransform="matrix(0, 0.00186157, -0.00120544, 0, -24.2, -18.8)" spreadMethod ="pad" x1="-819.2" y1="0" x2="819.2" y2="0" >
<stop  offset="0" style="stop-color:#FFFFFF;stop-opacity:0.2" />
<stop  offset="1" style="stop-color:#FFFFFF;stop-opacity:0" />
</linearGradient>
<path style="fill:url(#LinearGradID_16) " d="M-22.8 -17.7L-25.6 -17.7L-25.6 -19.85L-22.8 -19.85L-22.8 -17.7" />
<linearGradient
id="LinearGradID_17" gradientUnits="userSpaceOnUse" gradientTransform="matrix(0, 0.00236511, -0.00169373, 0, -2.2, -20.05)" spreadMethod ="pad" x1="-819.2" y1="0" x2="819.2" y2="0" >
<stop  offset="0" style="stop-color:#FFFFFF;stop-opacity:0.2" />
<stop  offset="1" style="stop-color:#FFFFFF;stop-opacity:0" />
</linearGradient>
<path style="fill:url(#LinearGradID_17) " d="M-0.4 -21.6L-0.4 -18.6L-3.95 -18.6L-3.95 -21.6L-0.4 -21.6" />
<linearGradient
id="LinearGradID_18" gradientUnits="userSpaceOnUse" gradientTransform="matrix(0, 0.0245972, -0.0226135, 0, -3.9, 3.05)" spreadMethod ="pad" x1="-819.2" y1="0" x2="819.2" y2="0" >
<stop  offset="0" style="stop-color:#FFFFFF;stop-opacity:0.2" />
<stop  offset="1" style="stop-color:#FFFFFF;stop-opacity:0" />
</linearGradient>
<path style="fill:url(#LinearGradID_18) " d="M-3.95 -14.45L-3.95 -17.1L-0.4 -17.1L-0.4 -10.6L-1.8 -10.6L-1.8 23.3L-3.35 23.3L-3.35 -9.9L-4.35 -9.9L-4.35 23.3L-6.7 23.3L-6.7 -11.2L-7.95 -11.2L-7.95 23.3L-8.7 23.3L-8.7 -14.45L-3.95 -14.45" />
<linearGradient
id="LinearGradID_19" gradientUnits="userSpaceOnUse" gradientTransform="matrix(0, 0.0173492, -0.0130463, 0, -31.15, 10.15)" spreadMethod ="pad" x1="-819.2" y1="0" x2="819.2" y2="0" >
<stop  offset="0" style="stop-color:#FFFFFF;stop-opacity:0.2" />
<stop  offset="1" style="stop-color:#FFFFFF;stop-opacity:0" />
</linearGradient>
<path style="fill:url(#LinearGradID_19) " d="M-29.55 0L-29.55 23.3L-33.75 23.3L-33.75 0L-29.55 0" />
</g>
<g id="PathID_32" transform="matrix(1.83906, 0, 0, 1.83906, 268.95, 130.65)" opacity="1">
</g>
<filter id="filter17" x="-0.589048" y="-0.589048" width="2.37395" height="2.4086" >
<feComponentTransfer in="SourceGraphic">
	<feFuncR type="linear" slope="0"/>
	<feFuncG type="linear" slope="0"/>
	<feFuncB type="linear" slope="0"/>
</feComponentTransfer>
<feGaussianBlur stdDeviation="1 1" />
<feOffset dx="0" dy="0"/>
<feComponentTransfer result="7">
	<feFuncR type="linear" Ue="0" intercept="0.592157"/>
	<feFuncG type="linear" Ue="0" intercept="0.443137"/>
	<feFuncB type="linear" Ue="0" intercept="0.537255"/>
	<feFuncA type="linear" xh="0" slope="1.37891"/>
</feComponentTransfer>
<feComposite result="8"  in="SourceGraphic" in2="7" operator="over"/>
<feComponentTransfer in="8">
	<feFuncR type="linear" slope="0"/>
	<feFuncG type="linear" slope="0"/>
	<feFuncB type="linear" slope="0"/>
</feComponentTransfer>
<feGaussianBlur stdDeviation="2 2" />
<feOffset result="9" dx="-3.53558" dy="-3.53549"/>
<feComponentTransfer in="8">
	<feFuncR type="linear" slope="0"/>
	<feFuncG type="linear" slope="0"/>
	<feFuncB type="linear" slope="0"/>
</feComponentTransfer>
<feGaussianBlur stdDeviation="2 2" />
<feOffset result="10" dx="3.53558" dy="3.53549"/>
<feComposite  in="9" in2="10" operator="arithmetic" k2="1" k3="-1"/>
<feComponentTransfer result="11">
	<feFuncR type="linear" Ue="0" intercept="1"/>
	<feFuncG type="linear" Ue="0" intercept="0.74902"/>
	<feFuncB type="linear" Ue="0" intercept="0.905882"/>
	<feFuncA type="linear" xh="0" slope="1"/>
</feComponentTransfer>
<feComposite  in="10" in2="9" operator="arithmetic" k2="1" k3="-1"/>
<feComponentTransfer result="12">
	<feFuncR type="linear" Ue="0" intercept="0.490196"/>
	<feFuncG type="linear" Ue="0" intercept="0.219608"/>
	<feFuncB type="linear" Ue="0" intercept="0.388235"/>
	<feFuncA type="linear" xh="0" slope="1"/>
</feComponentTransfer>
<feComposite result="13"  in="11" in2="12" operator="arithmetic" k2="1" k3="1"/>
<feComposite result="14"  in="13" in2="8" operator="atop"/>
<feComponentTransfer in="14">
	<feFuncR type="linear" slope="0"/>
	<feFuncG type="linear" slope="0"/>
	<feFuncB type="linear" slope="0"/>
</feComponentTransfer>
<feGaussianBlur stdDeviation="4 4" />
<feComponentTransfer result="15">
	<feFuncR type="linear" Ue="0" intercept="1"/>
	<feFuncG type="linear" Ue="0" intercept="0.152941"/>
	<feFuncB type="linear" Ue="0" intercept="0.686275"/>
	<feFuncA type="linear" xh="0" slope="1"/>
</feComponentTransfer>
<feComposite result="16"  in="14" in2="15" operator="over"/>
</filter>
<g style="filter:url(#filter17);">
<g id="PathID_33" transform="matrix(1.00562, -0.406297, 0.406297, 1.00562, 172.95, 93.15)" opacity="1">
<path style="fill:#E366B5;fill-opacity:1" d="M45.2 0L29.4 0L29.4 -1.8Q30.25 -1.8 31.55 -1.95Q32.9 -2.1 33.4 -2.4Q34.2 -2.85 34.55 -3.45Q34.95 -4.1 34.95 -5L34.95 -30.8L34.55 -30.8L22.5 -0.6L21.25 -0.6L9.75 -31.4L9.45 -31.4L9.45 -10.25Q9.45 -7.15 9.8 -5.55Q10.2 -4 11 -3.3Q11.55 -2.75 13.25 -2.25Q15 -1.8 15.55 -1.8L15.55 0L1.2 0L1.2 -1.8Q2.3 -1.9 3.55 -2.15Q4.8 -2.4 5.45 -2.95Q6.35 -3.65 6.65 -5.1Q7 -6.55 7 -9.95L7 -28.1Q7 -29.7 6.6 -30.7Q6.2 -31.7 5.5 -32.3Q4.75 -33 3.6 -33.3Q2.5 -33.65 1.4 -33.7L1.4 -35.5L13.5 -35.5L23.65 -8.9L32.3 -31.1Q32.75 -32.35 33.1 -33.65Q33.45 -35 33.45 -35.5L45.15 -35.5L45.15 -33.7Q44.4 -33.65 43.3 -33.45L41.75 -33.1Q40.9 -32.8 40.6 -32.1Q40.3 -31.4 40.3 -30.55L40.3 -5Q40.3 -4.1 40.6 -3.5Q40.9 -2.9 41.75 -2.45Q42.2 -2.25 43.35 -2Q44.5 -1.8 45.2 -1.8L45.2 0" />
</g>
<g id="PathID_34" transform="matrix(1.00562, -0.406297, 0.406297, 1.00562, 172.95, 93.15)" opacity="1">
</g>
<g id="PathID_35" transform="matrix(1.07404, -0.150947, 0.150947, 1.07404, 220.45, 73.55)" opacity="1">
<path style="fill:#E366B5;fill-opacity:1" d="M31.1 -31.25Q33.45 -28.8 34.75 -25.35Q36.1 -21.9 36.1 -17.7Q36.1 -13.45 34.75 -10Q33.4 -6.55 31 -4.15Q28.65 -1.75 25.55 -0.45Q22.5 0.85 19.05 0.85Q15.35 0.85 12.2 -0.5Q9.05 -1.9 6.8 -4.4Q4.55 -6.8 3.25 -10.25Q2 -13.75 2 -17.7Q2 -22 3.35 -25.4Q4.7 -28.8 7.05 -31.25Q9.4 -33.7 12.5 -35Q15.65 -36.35 19.05 -36.35Q22.55 -36.35 25.65 -35Q28.8 -33.65 31.1 -31.25M27.35 -6.1Q28.75 -8.4 29.4 -11.25Q30.05 -14.15 30.05 -17.7Q30.05 -21.35 29.3 -24.4Q28.6 -27.45 27.25 -29.6Q25.85 -31.7 23.75 -32.9Q21.7 -34.1 19.05 -34.1Q16.05 -34.1 13.95 -32.7Q11.85 -31.35 10.5 -29.05Q9.25 -26.85 8.65 -23.9Q8.05 -20.95 8.05 -17.7Q8.05 -14.1 8.7 -11.2Q9.35 -8.3 10.75 -6.05Q12.1 -3.85 14.15 -2.6Q16.2 -1.4 19.05 -1.4Q21.7 -1.4 23.85 -2.6Q26 -3.85 27.35 -6.1" />
</g>
<g id="PathID_36" transform="matrix(1.07404, -0.150947, 0.150947, 1.07404, 220.45, 73.55)" opacity="1">
</g>
<g id="PathID_37" transform="matrix(1.08311, 0.0567634, -0.0567634, 1.08311, 261.35, 67.75)" opacity="1">
<path style="fill:#E366B5;fill-opacity:1" d="M31.35 -25.9L29.6 -25.9Q29.35 -26.75 28.75 -28Q28.2 -29.25 27.45 -30.35Q26.7 -31.5 25.8 -32.35Q24.95 -33.2 24.1 -33.35L22.15 -33.5L20 -33.55L18.55 -33.55L18.55 -5.15Q18.55 -4.35 18.9 -3.65Q19.25 -2.95 20.1 -2.6Q20.55 -2.4 22 -2.1Q23.45 -1.8 24.25 -1.8L24.25 0L7.45 0L7.45 -1.8L9.55 -2Q11 -2.15 11.55 -2.35Q12.4 -2.7 12.8 -3.3Q13.2 -3.9 13.2 -4.95L13.2 -33.55L11.75 -33.55L9.8 -33.5L7.6 -33.35Q6.8 -33.25 5.9 -32.35Q5 -31.45 4.25 -30.35Q3.5 -29.2 2.9 -27.95Q2.35 -26.7 2.15 -25.9L0.4 -25.9L0.4 -35.5L31.35 -35.5L31.35 -25.9" />
</g>
<g id="PathID_38" transform="matrix(1.08311, 0.0567634, -0.0567634, 1.08311, 261.35, 67.75)" opacity="1">
</g>
<g id="PathID_39" transform="matrix(1.05238, 0.262388, -0.262388, 1.05238, 295.65, 69.9)" opacity="1">
<path style="fill:#E366B5;fill-opacity:1" d="M32.3 -10.45L31.6 0L2.15 0L2.15 -1.8L4.15 -2Q5.4 -2.15 5.75 -2.3Q6.55 -2.7 6.85 -3.3Q7.2 -3.9 7.2 -4.8L7.2 -30.3Q7.2 -31.15 6.9 -31.75Q6.65 -32.4 5.75 -32.8Q5.1 -33.15 3.95 -33.4Q2.8 -33.65 2.15 -33.7L2.15 -35.5L29.6 -35.5L29.6 -26.95L27.7 -26.95Q27.2 -28.8 25.5 -30.95Q23.85 -33.1 22.35 -33.3L20.5 -33.45L18.1 -33.5L12.55 -33.5L12.55 -19.4L16.5 -19.4Q18.45 -19.4 19.3 -19.75Q20.2 -20.1 20.9 -20.95Q21.45 -21.7 21.8 -22.9Q22.2 -24.1 22.35 -25.2L24.25 -25.2L24.25 -11.3L22.35 -11.3Q22.25 -12.5 21.8 -13.8Q21.35 -15.15 20.9 -15.75Q20.1 -16.75 19.1 -17.05Q18.15 -17.35 16.5 -17.35L12.55 -17.35L12.55 -6.7Q12.55 -5.1 12.75 -4.15Q13 -3.25 13.65 -2.75Q14.3 -2.3 15.4 -2.15Q16.55 -2.05 18.6 -2.05L20.8 -2.05Q22.15 -2.05 23.05 -2.15Q24 -2.25 25 -2.5Q26.05 -2.75 26.45 -3.2Q27.6 -4.4 28.85 -6.85Q30.15 -9.3 30.5 -10.45L32.3 -10.45" />
</g>
<g id="PathID_40" transform="matrix(1.05238, 0.262388, -0.262388, 1.05238, 295.65, 69.9)" opacity="1">
</g>
<g id="PathID_41" transform="matrix(0.982979, 0.458371, -0.458371, 0.982979, 330.75, 79.05)" opacity="1">
<path style="fill:#E366B5;fill-opacity:1" d="M30.95 -10.55L30.2 0L2.5 0L2.5 -1.8L4.15 -1.95Q5.3 -2.1 5.75 -2.25Q6.5 -2.6 6.85 -3.2Q7.2 -3.85 7.2 -4.8L7.2 -30.2Q7.2 -31.05 6.9 -31.7Q6.6 -32.35 5.75 -32.75Q5.2 -33.05 4.15 -33.35Q3.15 -33.65 2.5 -33.7L2.5 -35.5L17.45 -35.5L17.45 -33.7Q16.75 -33.65 15.6 -33.4L14 -33.05Q13.15 -32.75 12.85 -32Q12.55 -31.3 12.55 -30.45L12.55 -6.65Q12.55 -5 12.7 -4.05Q12.85 -3.15 13.45 -2.65Q14 -2.2 15.15 -2.05Q16.3 -1.95 18.35 -1.95L20.25 -2Q21.25 -2.05 22.15 -2.2Q23.05 -2.35 23.75 -2.6Q24.5 -2.85 24.85 -3.25Q25.9 -4.4 27.25 -6.75Q28.6 -9.1 29.15 -10.55L30.95 -10.55" />
</g>
<g id="PathID_42" transform="matrix(0.982979, 0.458371, -0.458371, 0.982979, 330.75, 79.05)" opacity="1">
</g>
</g>
</svg>
